# xmcd
#
# Track frame offsets:
#	150
#	12274
#	24458
#	35165
#	46898
#	58134
#	69771
#	82501
#	94887
#	106729
#	119556
#	132882
#	144620
#	156096
#	168455
#	181556
#	196025
#	210112
#	223892
#	234798
#	248752
#	261922
#	275356
#	285842
#	297747
#
# Disc length: 4159
#
# Revision: 1
# Processed by: cddbd v1.5.1PL2 Copyright (c) Steve Scherf et al.
# Submitted via: CDex 1.51
# Normalized: r0:TDELIM( - )
#
DISCID=56103d19
DTITLE=Various Artist - Down Home Blue Classics 1943-1953 - CD2 - Memphis and The South 1949-1953
DYEAR=2004
DGENRE=Blues
TTITLE0=Big Joe Williams - She's A Married Woman
TTITLE1=Howlin' Wolf - How Many More Years
TTITLE2=Mr Honey - Build Myself A Cave
TTITLE3=Silver Cooke - Mr Ticket Agent
TTITLE4=Edgar Blanchard - Creole Gal Blues
TTITLE5=Stick Hirse Hammond - Too Late Baby
TTITLE6=Pee Wee Hughes - Country Boy
TTITLE7=David "Pete" Mckinley - Ardette
TTITLE8=J D Horton - Cadillac Blues
TTITLE9=Long John Hunter - Schoolboy
TTITLE10=Sonny Boy Williamson - Eyesight To The Blind
TTITLE11=Luther Huff - 1951 Blues
TTITLE12=Eddie "Guitar Slim" Jones - New Arrival
TTITLE13=Elmore James - Dust My Broom
TTITLE14=Bobo Thomas - Catfish Blues
TTITLE15=Clarence London - Goin' Back To Mama
TTITLE16=Tommy Lee - Highway 80 Blues
TTITLE17=Chiago Sonny Boy - Western Union Man
TTITLE18=Papa Lightfoot - After Awhile
TTITLE19=Earl Hooker - Sweet Angel
TTITLE20=Willie Love - Seventy Four Blues
TTITLE21=Jimmy and Walter - Easy
TTITLE22=Jimmy DeBerry - Take A Little Chance
TTITLE23=Arthur Big Boy Crudup - Make A Little Love
TTITLE24=Little Sam Davis - Goin' To New Orleans
EXTD=YEAR: 2004
EXTT0=
EXTT1=
EXTT2=
EXTT3=
EXTT4=
EXTT5=
EXTT6=
EXTT7=
EXTT8=
EXTT9=
EXTT10=
EXTT11=
EXTT12=
EXTT13=
EXTT14=
EXTT15=
EXTT16=
EXTT17=
EXTT18=
EXTT19=
EXTT20=
EXTT21=
EXTT22=
EXTT23=
EXTT24=
PLAYORDER=
